<svg xmlns="http://www.w3.org/2000/svg" viewBox="0 0 800 600">
  <defs>
    <linearGradient id="bg" x1="0%" y1="0%" x2="100%" y2="100%">
      <stop offset="0%" style="stop-color:#0f0f1a"/>
      <stop offset="50%" style="stop-color:#1a1a2e"/>
      <stop offset="100%" style="stop-color:#2d1f3d"/>
    </linearGradient>
    <linearGradient id="accent" x1="0%" y1="0%" x2="100%" y2="0%">
      <stop offset="0%" style="stop-color:#a855f7"/>
      <stop offset="50%" style="stop-color:#7c3aed"/>
      <stop offset="100%" style="stop-color:#a855f7"/>
    </linearGradient>
    <linearGradient id="accent2" x1="0%" y1="0%" x2="100%" y2="0%">
      <stop offset="0%" style="stop-color:#f97316"/>
      <stop offset="100%" style="stop-color:#fb923c"/>
    </linearGradient>
    <linearGradient id="accent3" x1="0%" y1="0%" x2="100%" y2="0%">
      <stop offset="0%" style="stop-color:#06b6d4"/>
      <stop offset="100%" style="stop-color:#22d3ee"/>
    </linearGradient>
    <linearGradient id="glow" x1="0%" y1="0%" x2="100%" y2="100%">
      <stop offset="0%" style="stop-color:#a855f7;stop-opacity:0.4"/>
      <stop offset="100%" style="stop-color:#f97316;stop-opacity:0.1"/>
    </linearGradient>
    <filter id="blur" x="-50%" y="-50%" width="200%" height="200%">
      <feGaussianBlur in="SourceGraphic" stdDeviation="25"/>
    </filter>
    <filter id="glowFilter" x="-50%" y="-50%" width="200%" height="200%">
      <feGaussianBlur in="SourceGraphic" stdDeviation="4" result="blur"/>
      <feMerge>
        <feMergeNode in="blur"/>
        <feMergeNode in="SourceGraphic"/>
      </feMerge>
    </filter>
  </defs>
  
  <rect width="800" height="600" fill="url(#bg)"/>
  
  <g filter="url(#blur)" opacity="0.5">
    <circle cx="180" cy="180" r="140" fill="url(#glow)"/>
    <circle cx="620" cy="200" r="160" fill="url(#glow)"/>
    <circle cx="400" cy="480" r="180" fill="url(#glow)"/>
  </g>
  
  <g opacity="0.08">
    <line x1="0" y1="100" x2="800" y2="100" stroke="#a855f7" stroke-width="0.5"/>
    <line x1="0" y1="200" x2="800" y2="200" stroke="#a855f7" stroke-width="0.5"/>
    <line x1="0" y1="300" x2="800" y2="300" stroke="#a855f7" stroke-width="0.5"/>
    <line x1="0" y1="400" x2="800" y2="400" stroke="#a855f7" stroke-width="0.5"/>
    <line x1="0" y1="500" x2="800" y2="500" stroke="#a855f7" stroke-width="0.5"/>
  </g>
  
  <g transform="translate(40, 50)">
    <g transform="translate(0, 0)">
      <rect x="20" y="80" width="120" height="160" rx="8" fill="none" stroke="url(#accent)" stroke-width="2" opacity="0.8"/>
      <rect x="35" y="100" width="90" height="50" rx="4" fill="url(#accent)" opacity="0.3"/>
      <circle cx="80" cy="125" r="15" fill="url(#accent2)" opacity="0.5"/>
      <rect x="35" y="170" width="40" height="50" rx="2" fill="url(#accent)" opacity="0.4"/>
      <rect x="85" y="170" width="40" height="50" rx="2" fill="url(#accent3)" opacity="0.4"/>
      <line x1="55" y1="195" x2="55" y2="210" stroke="#ffffff" stroke-width="2" opacity="0.6"/>
      <line x1="105" y1="195" x2="105" y2="210" stroke="#ffffff" stroke-width="2" opacity="0.6"/>
      <text x="80" y="280" text-anchor="middle" fill="#a855f7" font-family="Arial" font-size="13" font-weight="bold">家居</text>
    </g>
    
    <g transform="translate(160, 20)">
      <rect x="10" y="60" width="140" height="100" rx="4" fill="none" stroke="url(#accent2)" stroke-width="2" opacity="0.8"/>
      <rect x="20" y="80" width="60" height="60" rx="2" fill="url(#accent)" opacity="0.4"/>
      <circle cx="50" cy="110" r="15" fill="url(#accent2)" opacity="0.6"/>
      <rect x="90" y="80" width="50" height="60" rx="2" fill="url(#accent3)" opacity="0.3"/>
      <path d="M105 100 L125 100 M105 110 L125 110 M105 120 L125 120" stroke="url(#accent2)" stroke-width="2" opacity="0.6"/>
      <rect x="30" y="160" width="100" height="80" rx="4" fill="none" stroke="url(#accent)" stroke-width="2" opacity="0.6"/>
      <circle cx="80" cy="200" r="20" fill="url(#accent)" opacity="0.4"/>
      <path d="M60 200 L100 200 M80 180 L80 220" stroke="url(#accent2)" stroke-width="2" opacity="0.8"/>
      <text x="80" y="280" text-anchor="middle" fill="#f97316" font-family="Arial" font-size="13" font-weight="bold">家电</text>
    </g>
    
    <g transform="translate(340, 0)">
      <rect x="20" y="40" width="60" height="200" rx="4" fill="none" stroke="url(#accent3)" stroke-width="2" opacity="0.7"/>
      <line x1="30" y1="60" x2="70" y2="60" stroke="url(#accent3)" stroke-width="1" opacity="0.5"/>
      <line x1="30" y1="80" x2="70" y2="80" stroke="url(#accent3)" stroke-width="1" opacity="0.5"/>
      <line x1="30" y1="100" x2="70" y2="100" stroke="url(#accent3)" stroke-width="1" opacity="0.5"/>
      <line x1="30" y1="120" x2="70" y2="120" stroke="url(#accent3)" stroke-width="1" opacity="0.5"/>
      <line x1="30" y1="140" x2="70" y2="140" stroke="url(#accent3)" stroke-width="1" opacity="0.5"/>
      <rect x="90" y="60" width="50" height="180" rx="4" fill="none" stroke="url(#accent)" stroke-width="2" opacity="0.6"/>
      <line x1="100" y1="80" x2="130" y2="80" stroke="url(#accent)" stroke-width="1" opacity="0.4"/>
      <line x1="100" y1="100" x2="130" y2="100" stroke="url(#accent)" stroke-width="1" opacity="0.4"/>
      <line x1="100" y1="120" x2="130" y2="120" stroke="url(#accent)" stroke-width="1" opacity="0.4"/>
      <line x1="100" y1="140" x2="130" y2="140" stroke="url(#accent)" stroke-width="1" opacity="0.4"/>
      <line x1="100" y1="160" x2="130" y2="160" stroke="url(#accent)" stroke-width="1" opacity="0.4"/>
      <line x1="100" y1="180" x2="130" y2="180" stroke="url(#accent)" stroke-width="1" opacity="0.4"/>
      <rect x="150" y="80" width="50" height="160" rx="4" fill="none" stroke="url(#accent2)" stroke-width="2" opacity="0.5"/>
      <line x1="160" y1="100" x2="190" y2="100" stroke="url(#accent2)" stroke-width="1" opacity="0.4"/>
      <line x1="160" y1="120" x2="190" y2="120" stroke="url(#accent2)" stroke-width="1" opacity="0.4"/>
      <line x1="160" y1="140" x2="190" y2="140" stroke="url(#accent2)" stroke-width="1" opacity="0.4"/>
      <line x1="160" y1="160" x2="190" y2="160" stroke="url(#accent2)" stroke-width="1" opacity="0.4"/>
      <line x1="160" y1="180" x2="190" y2="180" stroke="url(#accent2)" stroke-width="1" opacity="0.4"/>
      <text x="110" y="280" text-anchor="middle" fill="#06b6d4" font-family="Arial" font-size="13" font-weight="bold">图书</text>
    </g>
    
    <g transform="translate(560, 30)">
      <circle cx="70" cy="100" r="60" fill="none" stroke="url(#accent)" stroke-width="2" opacity="0.7"/>
      <circle cx="70" cy="100" r="40" fill="none" stroke="url(#accent2)" stroke-width="1" opacity="0.5"/>
      <circle cx="70" cy="100" r="20" fill="url(#accent)" opacity="0.3"/>
      <path d="M70 60 L70 140 M30 100 L110 100" stroke="url(#accent3)" stroke-width="2" opacity="0.6"/>
      <path d="M45 75 L95 125 M95 75 L45 125" stroke="url(#accent2)" stroke-width="1" opacity="0.4"/>
      <circle cx="70" cy="100" r="8" fill="url(#accent)" filter="url(#glowFilter)"/>
      <text x="70" y="280" text-anchor="middle" fill="#a855f7" font-family="Arial" font-size="13" font-weight="bold">母婴</text>
    </g>
  </g>
  
  <g transform="translate(80, 380)">
    <g transform="translate(0, 0)">
      <rect x="10" y="20" width="80" height="60" rx="4" fill="none" stroke="url(#accent2)" stroke-width="2" opacity="0.7"/>
      <rect x="20" y="35" width="25" height="35" fill="url(#accent)" opacity="0.4"/>
      <rect x="55" y="35" width="25" height="35" fill="url(#accent2)" opacity="0.4"/>
      <circle cx="50" cy="15" r="10" fill="url(#accent3)" opacity="0.5"/>
      <text x="50" y="110" text-anchor="middle" fill="#f97316" font-family="Arial" font-size="12">厨卫</text>
    </g>
    
    <g transform="translate(120, 0)">
      <ellipse cx="50" cy="50" rx="40" ry="30" fill="none" stroke="url(#accent)" stroke-width="2" opacity="0.7"/>
      <ellipse cx="50" cy="50" rx="25" ry="18" fill="url(#accent)" opacity="0.3"/>
      <rect x="35" y="70" width="30" height="15" rx="2" fill="url(#accent2)" opacity="0.5"/>
      <text x="50" y="110" text-anchor="middle" fill="#a855f7" font-family="Arial" font-size="12">清洁</text>
    </g>
    
    <g transform="translate(240, 10)">
      <rect x="10" y="20" width="60" height="50" rx="4" fill="none" stroke="url(#accent3)" stroke-width="2" opacity="0.7"/>
      <rect x="20" y="30" width="40" height="30" rx="2" fill="url(#accent3)" opacity="0.3"/>
      <circle cx="40" cy="45" r="8" fill="url(#accent)" opacity="0.5"/>
      <text x="40" y="110" text-anchor="middle" fill="#06b6d4" font-family="Arial" font-size="12">数码</text>
    </g>
    
    <g transform="translate(340, 0)">
      <path d="M20 70 L20 30 L60 30 L60 70" fill="none" stroke="url(#accent)" stroke-width="2" opacity="0.7"/>
      <line x1="20" y1="50" x2="60" y2="50" stroke="url(#accent)" stroke-width="1" opacity="0.5"/>
      <rect x="25" y="35" width="30" height="10" fill="url(#accent2)" opacity="0.4"/>
      <rect x="25" y="55" width="30" height="10" fill="url(#accent3)" opacity="0.4"/>
      <text x="40" y="110" text-anchor="middle" fill="#a855f7" font-family="Arial" font-size="12">文具</text>
    </g>
    
    <g transform="translate(440, 10)">
      <circle cx="40" cy="40" r="30" fill="none" stroke="url(#accent2)" stroke-width="2" opacity="0.6"/>
      <path d="M25 40 L40 25 L55 40 L40 55 Z" fill="url(#accent)" opacity="0.4"/>
      <circle cx="40" cy="40" r="8" fill="url(#accent2)" opacity="0.6"/>
      <text x="40" y="110" text-anchor="middle" fill="#f97316" font-family="Arial" font-size="12">玩具</text>
    </g>
    
    <g transform="translate(540, 0)">
      <rect x="10" y="15" width="70" height="55" rx="4" fill="none" stroke="url(#accent3)" stroke-width="2" opacity="0.6"/>
      <rect x="20" y="25" width="50" height="35" rx="2" fill="url(#accent)" opacity="0.3"/>
      <path d="M35 35 L55 35 L55 50 L35 50 Z" fill="url(#accent3)" opacity="0.5"/>
      <text x="45" y="110" text-anchor="middle" fill="#06b6d4" font-family="Arial" font-size="12">宠物</text>
    </g>
  </g>
  
  <g transform="translate(0, 520)">
    <rect x="0" y="0" width="800" height="80" fill="url(#bg)" opacity="0.85"/>
    <text x="400" y="35" text-anchor="middle" fill="#ffffff" font-family="Arial" font-size="28" font-weight="bold">大生活行业</text>
    <text x="400" y="60" text-anchor="middle" fill="#a855f7" font-family="Arial" font-size="16" opacity="0.9">家居 · 家电 · 图书 · 母婴 · 数码</text>
  </g>
  
  <g opacity="0.15">
    <circle cx="100" cy="100" r="2" fill="#a855f7"/>
    <circle cx="700" cy="80" r="3" fill="#f97316"/>
    <circle cx="150" cy="500" r="2" fill="#06b6d4"/>
    <circle cx="650" cy="480" r="3" fill="#a855f7"/>
    <circle cx="400" cy="50" r="2" fill="#ffffff"/>
    <circle cx="300" cy="550" r="2" fill="#f97316"/>
    <circle cx="500" cy="560" r="2" fill="#06b6d4"/>
  </g>
</svg>